<?xml version="1.0" standalone="no"?>
<!DOCTYPE svg PUBLIC "-//W3C//DTD SVG 20010904//EN"
 "http://www.w3.org/TR/2001/REC-SVG-20010904/DTD/svg10.dtd">
<svg version="1.0" xmlns="http://www.w3.org/2000/svg"
 width="1024.000000pt" height="1024.000000pt" viewBox="0 0 1024.000000 1024.000000"
 preserveAspectRatio="xMidYMid meet">
<metadata>
Created by potrace 1.14, written by Peter Selinger 2001-2017
</metadata>
<g transform="translate(0.000000,1024.000000) scale(0.100000,-0.100000)"
fill="#000000" stroke="none">
<path d="M7046 6805 l-2418 -222 -1045 -209 c-575 -115 -1039 -210 -1032 -212
12 -2 6936 851 6994 862 98 18 -409 -26 -2499 -219z"/>
<path d="M8066 6595 c-186 -24 -340 -45 -341 -47 -5 -4 180 -1446 185 -1452 7
-6 672 80 735 95 220 52 410 250 477 497 29 108 29 296 0 403 -84 311 -336
529 -629 544 -67 3 -170 -7 -427 -40z m569 -264 c123 -57 227 -191 255 -328
17 -81 8 -215 -19 -285 -47 -121 -143 -219 -252 -257 -51 -18 -494 -80 -503
-70 -5 5 -116 873 -116 904 0 20 14 23 203 47 258 34 341 32 432 -11z"/>
<path d="M6859 6440 c-259 -41 -469 -243 -540 -518 -26 -104 -26 -280 1 -388
117 -465 604 -694 986 -463 151 92 273 271 315 464 20 92 15 265 -10 360 -95
360 -422 597 -752 545z m215 -280 c126 -39 246 -159 290 -290 27 -80 33 -222
11 -296 -52 -178 -177 -297 -340 -323 -258 -40 -495 189 -495 477 0 164 94
328 228 400 104 56 197 65 306 32z"/>
<path d="M5640 6285 c-358 -47 -387 -53 -475 -97 -161 -82 -280 -222 -340
-401 -122 -366 40 -777 369 -937 85 -41 167 -61 261 -62 64 0 741 78 753 87 3
3 -97 798 -101 801 -4 3 -658 -83 -661 -87 -2 -2 4 -61 12 -131 13 -106 19
-128 32 -128 9 0 104 11 210 25 106 14 195 24 197 21 3 -3 12 -62 21 -131 11
-93 13 -129 4 -134 -6 -3 -116 -19 -244 -35 -199 -25 -241 -27 -286 -17 -172
37 -313 182 -352 362 -17 78 -8 210 19 281 46 119 139 217 243 256 35 13 173
35 401 65 191 24 349 46 351 48 2 2 -3 61 -12 132 l-15 127 -31 -1 c-17 -1
-177 -20 -356 -44z"/>
<path d="M4171 5819 c-156 -171 -289 -313 -297 -316 -7 -2 -174 99 -370 226
-196 128 -359 230 -361 227 -5 -5 176 -1438 182 -1445 2 -2 56 2 120 9 104 12
115 15 115 33 0 11 -25 216 -55 455 -31 239 -54 437 -51 439 3 3 107 -61 231
-142 l227 -146 23 21 c12 11 96 102 186 200 130 142 165 176 171 162 4 -9 30
-199 58 -422 27 -223 53 -421 56 -440 l5 -35 117 14 c64 8 118 15 120 17 6 4
-182 1454 -188 1454 -3 -1 -133 -141 -289 -311z"/>
<path d="M2755 5916 c-74 -10 -80 -13 -83 -36 -3 -29 174 -1420 182 -1427 10
-10 236 20 236 31 0 6 -41 327 -90 714 -50 386 -90 709 -90 717 0 18 -36 18
-155 1z"/>
<path d="M1827 5783 c-3 -4 -91 -280 -197 -613 -105 -333 -214 -674 -241 -759
-27 -85 -48 -155 -47 -157 7 -6 258 32 266 41 5 6 74 214 152 463 79 249 147
449 151 445 5 -5 121 -188 260 -408 138 -220 252 -401 253 -402 1 -1 62 5 134
14 108 13 132 19 127 31 -6 16 -833 1332 -845 1345 -4 5 -10 5 -13 0z"/>
<path d="M7597 4695 c-686 -84 -1249 -154 -1252 -157 -5 -5 64 -239 74 -251 7
-7 2438 547 2449 558 7 7 125 21 -1271 -150z"/>
<path d="M1965 3871 c-792 -175 -1447 -320 -1455 -324 -8 -4 3 -5 25 -2 22 3
627 66 1345 140 718 74 1320 138 1338 141 31 5 37 14 122 184 50 99 84 180 78
179 -7 0 -661 -144 -1453 -318z"/>
</g>
</svg>
