<?xml version="1.0" encoding="utf-8"?>
<!-- Generator: Adobe Illustrator 23.0.5, SVG Export Plug-In . SVG Version: 6.00 Build 0)  -->
<svg version="1.1" id="Layer_1" xmlns="http://www.w3.org/2000/svg" xmlns:xlink="http://www.w3.org/1999/xlink" x="0px" y="0px"
	 viewBox="0 0 166 50" style="enable-background:new 0 0 166 50;" xml:space="preserve">
<style type="text/css">
	.st0{clip-path:url(#SVGID_2_);}
	.st1{fill-rule:evenodd;clip-rule:evenodd;fill:#FFFFFF;}
	.st2{fill:#FFFFFF;}
	.st3{font-family:'Gotham-Medium';}
	.st4{font-size:26.6993px;}
	.st5{fill-rule:evenodd;clip-rule:evenodd;fill:#FF8503;}
</style>
<title>logo-svg</title>
<g>
	<defs>
		<rect id="SVGID_1_" y="0" width="166" height="49.9"/>
	</defs>
	<clipPath id="SVGID_2_">
		<use xlink:href="#SVGID_1_"  style="overflow:visible;"/>
	</clipPath>
	<g id="Clip-Path" class="st0">
		<g>
			<path id="Layer" class="st1" d="M186,57.4c-2.2,0-3.9-0.5-5.2-1.4c-1.2-0.9-2.2-2.2-2.8-3.8c-0.5-1.7-0.7-3.6-0.7-5.8V35.6
				c0-2.2,0.3-4.2,0.8-5.8c0.6-1.7,1.6-3,3-3.8c1.4-0.9,3.3-1.4,5.7-1.4s4.3,0.4,5.6,1.2c1.4,0.8,2.4,1.9,2.9,3.3
				c0.6,1.4,0.9,3,0.9,4.9v2.1h-7v-2.6c0-0.7,0-1.4-0.1-2c-0.1-0.5-0.3-1-0.6-1.4c-0.4-0.3-0.9-0.5-1.6-0.5c-0.8,0-1.3,0.2-1.6,0.6
				c-0.4,0.4-0.6,0.9-0.7,1.5c-0.1,0.6-0.1,1.2-0.1,1.9v14.9c0,0.7,0.1,1.4,0.2,2c0.2,0.6,0.4,1.1,0.7,1.5c0.4,0.4,1,0.6,1.7,0.6
				c0.7,0,1.2-0.2,1.6-0.6c0.4-0.4,0.7-0.9,0.8-1.5c0.2-0.7,0.2-1.4,0.2-2.1v-3.7H187v-4.2h9.2v16.6h-4.6l-0.3-2.7
				c-0.5,0.9-1.1,1.7-1.9,2.3C188.5,57.1,187.4,57.4,186,57.4L186,57.4z M198.3,56.9l6-31.9h8.1l5.9,31.9h-6.5l-1-6.7H206l-1,6.7
				H198.3z M206.6,45.9h3.4l-1.6-12.4L206.6,45.9z M220.6,56.9l0.6-32h7.5l3.5,18.6l3.8-18.6h7.3l0.6,32h-5.1l-0.6-21.4l-3.7,21.4
				h-4.4l-3.9-21.5l-0.5,21.5H220.6z M247.3,56.9v-32h14.3v4.9h-7.3v7.9h5.6v4.9h-5.6V52h7.4v4.9H247.3z M262,56.9l6.3-17.3
				l-5.9-14.7h6.6l3.5,8.7l2.9-8.7h5.8l-5.6,16.6l6.3,15.4h-6.6l-3.9-9.6l-3.4,9.6L262,56.9z"/>
			<text transform="matrix(1 0 0 1 0 4.199219e-02)" class="st2 st3 st4">A</text>
			<text transform="matrix(1 0 0 1 21.0923 4.199219e-02)" class="st2 st3 st4">I</text>
			<text transform="matrix(1 0 0 1 29.5557 4.199219e-02)" class="st2 st3 st4">M</text>
			<text transform="matrix(1 0 0 1 52.7305 4.199219e-02)" class="st2 st3 st4">G</text>
			<text transform="matrix(1 0 0 1 73.6626 4.199219e-02)" class="st2 st3 st4">O</text>
			<text transform="matrix(1 0 0 1 96.3569 4.199219e-02)" class="st2 st3 st4">D</text>
			<path class="st5" d="M30.5,61.6h17.1v17.1c0,18.5-1,22.6-6.3,27.4c-5,4.6-8.9,5.5-26.8,5.5H-2.3V94.7c0-17.9,0.8-21.8,5.5-26.8
				c1.2-1.4,4.1-3.4,6.3-4.3C12.9,61.9,16.1,61.6,30.5,61.6z M28.6,66.7c-14.6,0-19.7,1.5-23.2,6.7c-1.9,2.7-2.1,4.8-2.1,17.6v14.9
				l12.5,0.2c15.4,0.3,19.6-0.7,23.3-5.6C41.7,97.3,42,96,42.3,87c0.3-5.7,0.2-10.1-0.1-10.1c-0.1,0-2.4,1.2-5.1,2.6
				c-4.8,2.6-4.8,2.7-4.8,8c0,7.5-1.6,8.7-11.5,8.7H13v-7.9c0-10.3,0.9-11.4,10.6-11.4c4.3,0,8.2-0.7,10.3-1.6
				c3.4-1.6,7.5-5.8,7.5-7.7C41.4,67,35.6,66.7,28.6,66.7z"/>
			<g id="aim" transform="matrix(.168,0,0,.168,0,0)">
			</g>
		</g>
	</g>
</g>
<image style="overflow:visible;" width="768" height="287" xlink:href="../../../../../Users/Ayush/Downloads/logoing-transformed.png"  transform="matrix(0.1656 0 0 0.1656 13.4584 1.2321)">
</image>
</svg>
